<?xml version="1.0" encoding="utf-8"?>
<!-- Generator: Adobe Illustrator 19.0.0, SVG Export Plug-In . SVG Version: 6.00 Build 0)  -->
<svg version="1.1" id="Layer_1" xmlns="http://www.w3.org/2000/svg" xmlns:xlink="http://www.w3.org/1999/xlink" x="0px" y="0px"
	 viewBox="-385 297 20 20" style="enable-background:new -385 297 20 20;" xml:space="preserve">
<style type="text/css">
	.st0{fill:#003366;}
</style>
<path class="st0" d="M-369.4,303.8l-1-1c-0.1-0.1-0.3-0.2-0.5-0.2c-0.2,0-0.4,0.1-0.5,0.2l-4.9,5l-2.2-2.2c-0.1-0.1-0.3-0.2-0.5-0.2
	c-0.2,0-0.4,0.1-0.5,0.2l-1,1c-0.1,0.1-0.2,0.3-0.2,0.5s0.1,0.4,0.2,0.5l2.7,2.7l1,1c0.1,0.1,0.3,0.2,0.5,0.2c0.2,0,0.4-0.1,0.5-0.2
	l1-1l5.5-5.5c0.1-0.1,0.2-0.3,0.2-0.5C-369.2,304.1-369.2,303.9-369.4,303.8L-369.4,303.8z"/>
</svg>
