<?xml version="1.0" encoding="utf-8"?>
<!-- Generator: Adobe Illustrator 19.0.0, SVG Export Plug-In . SVG Version: 6.00 Build 0)  -->
<svg version="1.1" id="Capa_1" xmlns="http://www.w3.org/2000/svg" xmlns:xlink="http://www.w3.org/1999/xlink" x="0px" y="0px"
	 viewBox="-191 228 216 146" style="enable-background:new -191 228 216 146;" xml:space="preserve">
<style type="text/css">
	.st0{fill:#0066CC;}
</style>
<path class="st0" d="M-27.8,270.6c-5.6-9.6-13.2-17.2-22.8-22.8c-9.6-5.6-20.1-8.4-31.4-8.4c-11.4,0-21.8,2.8-31.4,8.4
	c-9.6,5.6-17.2,13.2-22.8,22.8c-5.6,9.6-8.4,20.1-8.4,31.4s2.8,21.8,8.4,31.4c5.6,9.6,13.2,17.2,22.8,22.8
	c9.6,5.6,20.1,8.4,31.4,8.4s21.8-2.8,31.4-8.4c9.6-5.6,17.2-13.2,22.8-22.8c5.6-9.6,8.4-20.1,8.4-31.4
	C-19.4,290.6-22.2,280.2-27.8,270.6z M-71.6,341c0,0.8-0.2,1.4-0.7,1.9c-0.5,0.5-1.1,0.8-1.8,0.8h-15.6c-0.7,0-1.3-0.3-1.9-0.8
	s-0.8-1.2-0.8-1.9v-15.5c0-0.7,0.3-1.3,0.8-1.9s1.2-0.8,1.9-0.8h15.6c0.7,0,1.3,0.3,1.8,0.8c0.5,0.5,0.7,1.2,0.7,1.9V341z
	 M-71.7,313c-0.1,0.5-0.3,1-0.9,1.4c-0.5,0.4-1.2,0.6-1.9,0.6h-15.1c-0.8,0-1.4-0.2-2-0.6c-0.5-0.4-0.8-0.9-0.8-1.4l-1.4-50.6
	c0-0.7,0.3-1.1,0.8-1.5c0.5-0.4,1.2-0.7,2-0.7H-73c0.8,0,1.4,0.2,2,0.7c0.5,0.3,0.8,0.8,0.8,1.5L-71.7,313z"/>
</svg>
