<?xml version="1.0" encoding="utf-8"?>
<!-- Generator: Adobe Illustrator 19.0.0, SVG Export Plug-In . SVG Version: 6.00 Build 0)  -->
<svg version="1.1" id="Capa_1" xmlns="http://www.w3.org/2000/svg" xmlns:xlink="http://www.w3.org/1999/xlink" x="0px" y="0px"
	 viewBox="-191 228 216 146" style="enable-background:new -191 228 216 146;" xml:space="preserve">
<style type="text/css">
	.st0{fill:#0066CC;}
</style>
<path class="st0" d="M-27.8,270.6c-5.6-9.6-13.2-17.2-22.8-22.8c-9.6-5.6-20.1-8.4-31.4-8.4c-11.4,0-21.8,2.8-31.4,8.4
	c-9.6,5.6-17.2,13.2-22.8,22.8c-5.6,9.6-8.4,20.1-8.4,31.4c0,11.4,2.8,21.8,8.4,31.4c5.6,9.6,13.2,17.2,22.8,22.8
	c9.6,5.6,20.1,8.4,31.4,8.4s21.8-2.8,31.4-8.4c9.6-5.6,17.2-13.2,22.8-22.8c5.6-9.6,8.4-20.1,8.4-31.4
	C-19.4,290.6-22.2,280.2-27.8,270.6z M-92.4,255.1c0-0.8,0.2-1.4,0.7-1.9c0.5-0.5,1.1-0.7,1.9-0.7h15.6c0.8,0,1.4,0.2,1.9,0.7
	c0.5,0.5,0.7,1.1,0.7,1.9v13c0,0.8-0.2,1.4-0.7,1.9c-0.5,0.5-1.1,0.7-1.9,0.7h-15.6c-0.8,0-1.4-0.2-1.9-0.7
	c-0.5-0.5-0.7-1.1-0.7-1.9V255.1z M-61.1,341.1c0,0.8-0.2,1.4-0.7,1.9c-0.5,0.5-1.1,0.7-1.9,0.7h-36.5c-0.8,0-1.4-0.2-1.9-0.7
	c-0.5-0.5-0.7-1.1-0.7-1.9v-13c0-0.8,0.2-1.4,0.7-1.9c0.5-0.5,1.1-0.7,1.9-0.7h7.8v-26.1h-7.8c-0.8,0-1.4-0.2-1.9-0.7
	c-0.5-0.5-0.7-1.1-0.7-1.9v-13c0-0.8,0.2-1.4,0.7-1.9c0.5-0.5,1.1-0.7,1.9-0.7h26.1c0.8,0,1.4,0.2,1.9,0.7c0.5,0.5,0.7,1.1,0.7,1.9
	v41.7h7.8c0.8,0,1.4,0.2,1.9,0.7c0.5,0.5,0.7,1.1,0.7,1.9L-61.1,341.1L-61.1,341.1z"/>
</svg>
