<?xml version="1.0" encoding="utf-8"?>
<!-- Generator: Adobe Illustrator 19.0.0, SVG Export Plug-In . SVG Version: 6.00 Build 0)  -->
<svg version="1.1" id="Capa_1" xmlns="http://www.w3.org/2000/svg" xmlns:xlink="http://www.w3.org/1999/xlink" x="0px" y="0px"
	 viewBox="-191 228 216 146" style="enable-background:new -191 228 216 146;" xml:space="preserve">
<style type="text/css">
	.st0{fill:#0066CC;}
</style>
<path class="st0" d="M-27.8,270.6c-5.6-9.6-13.2-17.2-22.8-22.8c-9.6-5.6-20.1-8.4-31.4-8.4c-11.4,0-21.8,2.8-31.4,8.4
	c-9.6,5.6-17.2,13.2-22.8,22.8c-5.6,9.6-8.4,20.1-8.4,31.4c0,11.4,2.8,21.8,8.4,31.4c5.6,9.6,13.2,17.2,22.8,22.8
	c9.6,5.6,20.1,8.4,31.4,8.4s21.8-2.8,31.4-8.4c9.6-5.6,17.2-13.2,22.8-22.8c5.6-9.6,8.4-20.1,8.4-31.4
	C-19.4,290.6-22.2,280.2-27.8,270.6z M-41.4,292.5l-44.2,44.2c-1,1-2.3,1.5-3.7,1.5c-1.4,0-2.6-0.5-3.7-1.5l-29.5-29.5
	c-1-1-1.5-2.2-1.5-3.7c0-1.5,0.5-2.8,1.5-3.7l7.4-7.3c1-1,2.3-1.5,3.7-1.5s2.6,0.5,3.7,1.5l18.4,18.4l33.2-33.2c1-1,2.3-1.5,3.7-1.5
	c1.4,0,2.6,0.5,3.7,1.5l7.4,7.3c1,1,1.5,2.2,1.5,3.7C-40,290.3-40.4,291.5-41.4,292.5z"/>
</svg>
