<svg id="Layer_1" xmlns="http://www.w3.org/2000/svg" viewBox="-211 113 177 375"><style>.st0{fill:none;stroke:#FFF;stroke-width:12;stroke-miterlimit:10}.st1{fill:#FFF;stroke-width:4}.st1,.st2{stroke:#FFF;stroke-miterlimit:10}.st2{fill:none;stroke-width:10}.st3{fill:#FFF}</style><path id="XMLID_1_" class="st0" d="M-55 478h-135c-6.6 0-12-5.4-12-12V280c0-6.6 5.4-12 12-12h135c6.6 0 12 5.4 12 12v186c0 6.6-5.4 12-12 12z"/><g id="XMLID_7_"><path id="XMLID_8_" class="st1" d="M-122.1 119l16.5 13.3v6.7l-13.6-11v38.1h-5.8V128l-13.6 11v-6.7l16.5-13.3z"/></g><path id="XMLID_3_" class="st2" d="M-175 197h103v71h-103z"/><path id="XMLID_5_" class="st3" d="M-151 223h16v16h-16z"/><path id="XMLID_6_" class="st3" d="M-113 223h16v16h-16z"/></svg>