<svg xmlns="http://www.w3.org/2000/svg" viewBox="-212 237 88.5 128"><style>.st0{display:none}.st1{display:inline}.st1,.st2{fill:#06C}</style><path class="st0 st1" d="M-137.1 365h-61.3c-7.5 0-13.6-5-13.6-11.1V248.1c0-6.1 6.1-11.1 13.6-11.1h61.3c7.5 0 13.6 5 13.6 11.1v105.7c0 6.2-6.1 11.2-13.6 11.2zm6.8-116.9c0-3.1-3-5.6-6.8-5.6h-61.3c-3.8 0-6.8 2.5-6.8 5.6v11.1h74.9v-11.1zm0 16.7h-74.9v72.3h74.9v-72.3zm0 77.9h-74.9v11.1c0 3.1 3 5.6 6.8 5.6h61.3c3.8 0 6.8-2.5 6.8-5.6v-11.1zm-37.5 14c-3.8 0-6.8-2.5-6.8-5.6 0-3.1 3-5.6 6.8-5.6s6.8 2.5 6.8 5.6c.1 3.1-3 5.6-6.8 5.6zm-23.8-83.5h6.8c1.9 0 3.4 1.2 3.4 2.8v5.6c0 1.5-1.5 2.8-3.4 2.8h-6.8c-1.9 0-3.4-1.2-3.4-2.8V276c0-1.6 1.5-2.8 3.4-2.8zm0 19.5h6.8c1.9 0 3.4 1.2 3.4 2.8v5.6c0 1.5-1.5 2.8-3.4 2.8h-6.8c-1.9 0-3.4-1.2-3.4-2.8v-5.6c0-1.6 1.5-2.8 3.4-2.8zm0 19.4h6.8c1.9 0 3.4 1.2 3.4 2.8v5.6c0 1.5-1.5 2.8-3.4 2.8h-6.8c-1.9 0-3.4-1.2-3.4-2.8v-5.6c0-1.5 1.5-2.8 3.4-2.8zm20.4-38.9h6.8c1.9 0 3.4 1.2 3.4 2.8v5.6c0 1.5-1.5 2.8-3.4 2.8h-6.8c-1.9 0-3.4-1.2-3.4-2.8V276c0-1.6 1.6-2.8 3.4-2.8zm0 19.5h6.8c1.9 0 3.4 1.2 3.4 2.8v5.6c0 1.5-1.5 2.8-3.4 2.8h-6.8c-1.9 0-3.4-1.2-3.4-2.8v-5.6c0-1.6 1.6-2.8 3.4-2.8zm0 19.4h6.8c1.9 0 3.4 1.2 3.4 2.8v5.6c0 1.5-1.5 2.8-3.4 2.8h-6.8c-1.9 0-3.4-1.2-3.4-2.8v-5.6c0-1.5 1.6-2.8 3.4-2.8zm20.5-38.9h6.8c1.9 0 3.4 1.2 3.4 2.8v5.6c0 1.5-1.5 2.8-3.4 2.8h-6.8c-1.9 0-3.4-1.2-3.4-2.8V276c0-1.6 1.5-2.8 3.4-2.8zm0 19.5h6.8c1.9 0 3.4 1.2 3.4 2.8v5.6c0 1.5-1.5 2.8-3.4 2.8h-6.8c-1.9 0-3.4-1.2-3.4-2.8v-5.6c0-1.6 1.5-2.8 3.4-2.8zm-27.3-44.6h20.4c1.9 0 3.4 1.2 3.4 2.8 0 1.5-1.5 2.8-3.4 2.8H-178c-1.9 0-3.4-1.2-3.4-2.8 0-1.5 1.6-2.8 3.4-2.8z" id="Layer_1"/><g id="Layer_2"><path class="st2" d="M-124.7 329.1l-23.6-25 23.3-19.7c1.7-1.5 2-4.1.6-6-1.4-1.8-3.9-2.1-5.7-.7l-37.7 31.9-37.7-31.9c-1.7-1.5-4.3-1.2-5.7.7-1.4 1.8-1.1 4.5.6 6l23.3 19.7-23.6 25c-1.6 1.7-1.6 4.4 0 6 .8.8 1.8 1.2 2.8 1.2 1 0 2.1-.4 2.8-1.2l24.1-25.5c0-.1.1-.1.1-.2l10.6 9c.7.6 1.6.9 2.5.9s1.8-.3 2.5-.9l10.6-9c0 .1.1.1.1.2l24.1 25.5c.8.8 1.8 1.2 2.8 1.2 1 0 2.1-.4 2.8-1.2 2-1.7 2-4.4.4-6z"/><path class="st2" d="M-140.1 237h-55.3c-9.2 0-16.6 14.3-16.6 32v64c0 17.7 7.4 32 16.6 32h55.3c9.2 0 16.6-14.3 16.6-32v-64c0-17.7-7.4-32-16.6-32zm11.1 96c0 11.8-5 21.3-11.1 21.3h-55.3c-6.1 0-11.1-9.6-11.1-21.3v-64c0-11.8 5-21.3 11.1-21.3h55.3c6.1 0 11.1 9.6 11.1 21.3v64z"/></g></svg>