<?xml version="1.0" encoding="utf-8"?>
<!-- Generator: Adobe Illustrator 19.0.0, SVG Export Plug-In . SVG Version: 6.00 Build 0)  -->
<svg version="1.1" id="Capa_1" xmlns="http://www.w3.org/2000/svg" xmlns:xlink="http://www.w3.org/1999/xlink" x="0px" y="0px"
	 viewBox="-191 228 216 146" style="enable-background:new -191 228 216 146;" xml:space="preserve">
<style type="text/css">
	.st0{fill:#0066CC;}
</style>
<path class="st0" d="M-10.3,353.4l-62.6-114.7c-0.9-1.7-2.2-3-3.8-4c-1.6-1-3.4-1.5-5.3-1.5s-3.7,0.5-5.3,1.5s-2.9,2.3-3.8,4
	l-62.6,114.7c-1.9,3.4-1.8,6.8,0.2,10.3c0.9,1.6,2.2,2.8,3.8,3.7c1.6,0.9,3.3,1.4,5.2,1.4h125.1c1.8,0,3.6-0.5,5.2-1.4
	s2.9-2.2,3.8-3.7C-8.5,360.2-8.4,356.8-10.3,353.4z M-71.6,345.2c0,0.8-0.3,1.4-0.8,1.9s-1.1,0.8-1.8,0.8h-15.6
	c-0.7,0-1.3-0.3-1.8-0.8s-0.8-1.2-0.8-1.9v-15.5c0-0.8,0.3-1.4,0.8-1.9s1.1-0.8,1.8-0.8h15.6c0.7,0,1.3,0.3,1.8,0.8s0.8,1.2,0.8,1.9
	V345.2L-71.6,345.2z M-71.7,314.8c-0.1,0.5-0.3,1-0.9,1.3c-0.5,0.4-1.2,0.5-1.9,0.5h-15.1c-0.8,0-1.4-0.2-2-0.5
	c-0.5-0.4-0.8-0.8-0.8-1.3l-1.4-37.2c0-0.8,0.3-1.3,0.8-1.7c0.7-0.6,1.4-0.9,2-0.9h18c0.6,0,1.2,0.3,2,0.9c0.5,0.4,0.8,0.9,0.8,1.5
	L-71.7,314.8z"/>
</svg>
