<svg id="Layer_1" xmlns="http://www.w3.org/2000/svg" viewBox="0 0 545.6 137.4"><style>.st0{fill:#707070}.st1{fill:#f40808;stroke:#f40808;stroke-width:2;stroke-miterlimit:10}</style><g id="XMLID_2_"><path id="XMLID_13_" class="st0" d="M98.8 18H74.1v12.4h18.5v92.7H12.4V30.4h18.5V18H6.2C2.8 18 0 20.8 0 24.2v105c0 3.4 2.8 6.2 6.2 6.2h92.7c3.4 0 6.2-2.8 6.2-6.2v-105c-.1-3.4-2.8-6.2-6.3-6.2zm0 0"/><path id="XMLID_9_" class="st0" d="M38.4 42.2c.2.2 5.5 3.6 14.1 3.6s13.8-3.5 14.1-3.6c.9-.6 1.4-1.5 1.4-2.6v-34c0-1.7-1.4-3.1-3.1-3.1H40.2c-1.7 0-3.1 1.4-3.1 3.1v34c0 1.1.5 2.1 1.3 2.6zm4.8-33.4h18.5v29c-1.7.8-4.9 1.9-9.3 1.9-4.3 0-7.6-1.1-9.3-1.9v-29zm0 0"/><path id="XMLID_6_" class="st0" d="M36.5 102.3c-6.8 2.2-13 2.6-13 11.7 0 1.9 9.4 3.6 25 3.9l2-12.7-1-1.6c-.1-.2-.1-.5.1-.7l2.6-2.8c.2-.2.6-.2.9 0l2.6 2.8c.2.2.2.5.1.7l-1 1.6 2 12.7c15.6-.3 25-2 25-3.9 0-9-6.1-9.4-13-11.7-4.2-1.4-9.4-2.2-8.3-9.4 2.8-2.5 3.7-7.8 3.7-7.8s3.7-1.8 4.1-5.4c.3-2.7-1.1-4-1.1-4v-3.5c0-7.7-6.6-13.7-14.5-13.7s-14.5 6-14.5 13.7v3.5s-1.4 1.3-1.1 4c.4 3.6 4.1 5.4 4.1 5.4s1 5.2 3.8 7.8c.9 7.3-4.3 8.1-8.5 9.4zm0 0"/><path id="XMLID_3_" class="st0" d="M57.4 15c0 2.7-2.2 4.9-4.9 4.9s-4.9-2.2-4.9-4.9 2.2-4.9 4.9-4.9c2.7-.1 4.9 2.1 4.9 4.9zm0 0"/></g><g id="XMLID_107_"><path id="XMLID_108_" class="st1" d="M173.2 72.4c0 4.9-.8 9.5-2.5 13.8-1.7 4.3-4 8.1-6.9 11.3-3 3.2-6.5 5.8-10.6 7.6-4.1 1.9-8.6 2.8-13.4 2.8h-29.6v-71h29.6c4.8 0 9.3.9 13.4 2.8s7.6 4.4 10.6 7.6c3 3.2 5.3 7 6.9 11.3 1.6 4.4 2.5 9 2.5 13.8zm-14-.3c.1-3.3-.4-6.5-1.5-9.4-1.1-3-2.6-5.6-4.6-7.8-2-2.2-4.5-4-7.4-5.2-2.9-1.3-6.2-1.9-9.9-1.9h-12v48.5h12c3.6 0 6.8-.6 9.7-1.8 2.9-1.2 5.3-2.9 7.3-5.1 2-2.2 3.6-4.7 4.7-7.6 1.1-3 1.7-6.2 1.7-9.7z"/><path id="XMLID_111_" class="st1" d="M235 82.2c0 .8 0 1.7-.1 2.6-.1.9-.2 1.8-.3 2.8h-41c.5 1.5 1.1 2.9 2 4.2.9 1.3 1.9 2.5 3.1 3.5 1.2 1 2.6 1.7 4.2 2.3 1.6.6 3.3.8 5.2.8 2.3 0 4.6-.4 6.9-1.2 2.3-.8 4.2-1.9 5.8-3.2l8.1 8.1c-3.5 2.7-7 4.5-10.4 5.6-3.4 1.1-7 1.6-10.8 1.6-3.8 0-7.4-.7-10.8-2.1-3.3-1.4-6.2-3.3-8.7-5.8-2.5-2.4-4.4-5.3-5.8-8.6-1.4-3.3-2.1-6.8-2.1-10.5s.7-7.2 2.1-10.5c1.4-3.3 3.4-6.1 5.9-8.6 2.5-2.4 5.4-4.4 8.7-5.8 3.3-1.4 6.9-2.1 10.6-2.1 3.6 0 7.1.7 10.4 2 3.3 1.3 6.2 3.2 8.8 5.6 2.5 2.4 4.6 5.2 6 8.5 1.4 3.2 2.2 6.9 2.2 10.8zm-13.4-5c-1-3.3-2.8-5.9-5.4-7.9-2.6-2-5.5-3-8.7-3-3.2 0-6.1 1-8.6 3s-4.3 4.6-5.3 7.9h28z"/><path id="XMLID_114_" class="st1" d="M318.9 108h-12.8V77.3c0-3.6-.9-6.4-2.6-8.2-1.7-1.9-3.9-2.8-6.4-2.8-2 0-3.8.3-5.5.9-1.7.6-3.4 1.6-5.1 3.1.5 2.1.8 4.4.8 7V108h-12.8V77.3c0-3.6-.9-6.4-2.6-8.2-1.7-1.9-3.9-2.8-6.3-2.8-2 0-3.7.3-5.1 1-1.5.7-3 1.8-4.6 3.2V108H243V56.6h12.8v3.8c1.6-1.5 3.5-2.8 5.6-3.7 2.2-.9 4.4-1.4 6.6-1.4 2.5 0 5 .6 7.5 1.7s4.7 2.8 6.6 4.9c2.7-2.4 5.4-4.1 8.1-5.1 2.7-1 5.7-1.5 9-1.5 2.7 0 5.2.4 7.6 1.2 2.4.8 4.5 2.1 6.3 3.8 1.8 1.7 3.2 4 4.3 6.7 1.1 2.7 1.6 5.9 1.6 9.7V108z"/><path id="XMLID_116_" class="st1" d="M381.5 82.3c0 3.9-.7 7.4-2.1 10.7-1.4 3.3-3.4 6.1-5.9 8.5-2.5 2.4-5.4 4.3-8.7 5.7-3.3 1.4-6.9 2.1-10.7 2.1-3.8 0-7.3-.7-10.6-2.1-3.3-1.4-6.2-3.3-8.7-5.7-2.5-2.4-4.4-5.3-5.9-8.6-1.4-3.3-2.1-6.8-2.1-10.6 0-3.7.7-7.2 2.2-10.5 1.4-3.3 3.4-6.2 5.9-8.6 2.5-2.5 5.4-4.4 8.7-5.8 3.3-1.4 6.8-2.1 10.6-2.1s7.3.7 10.7 2.1c3.3 1.4 6.3 3.3 8.7 5.7 2.5 2.4 4.4 5.3 5.9 8.6 1.2 3.3 2 6.8 2 10.6zm-12.8 0c0-2.2-.4-4.2-1.1-6.1-.8-1.9-1.8-3.6-3.1-5s-2.9-2.5-4.6-3.3c-1.8-.8-3.7-1.2-5.7-1.2s-3.9.4-5.7 1.2c-1.8.8-3.3 1.9-4.6 3.3-1.3 1.4-2.4 3.1-3.1 5-.8 1.9-1.1 3.9-1.1 6.1 0 2.2.4 4.2 1.1 6.1.8 1.9 1.8 3.6 3.1 5s2.9 2.5 4.6 3.3c1.8.8 3.7 1.2 5.7 1.2s3.9-.4 5.7-1.2c1.8-.8 3.3-1.9 4.6-3.3s2.4-3.1 3.1-5c.7-1.8 1.1-3.9 1.1-6.1z"/><path id="XMLID_119_" class="st1" d="M405 108h-13.7V37H405v71z"/><path id="XMLID_121_" class="st1" d="M481.3 72.4c0 4.9-.8 9.5-2.5 13.8-1.7 4.3-4 8.1-6.9 11.3-3 3.2-6.5 5.8-10.6 7.6-4.1 1.9-8.6 2.8-13.4 2.8h-29.6v-71h29.6c4.8 0 9.3.9 13.4 2.8s7.6 4.4 10.6 7.6c3 3.2 5.3 7 6.9 11.3 1.7 4.4 2.5 9 2.5 13.8zm-13.9-.3c.1-3.3-.4-6.5-1.5-9.4-1.1-3-2.6-5.6-4.6-7.8-2-2.2-4.5-4-7.4-5.2-2.9-1.3-6.2-1.9-9.9-1.9h-12v48.5h12c3.6 0 6.8-.6 9.7-1.8 2.9-1.2 5.3-2.9 7.3-5.1 2-2.2 3.6-4.7 4.7-7.6 1-3 1.6-6.2 1.7-9.7z"/><path id="XMLID_124_" class="st1" d="M541.7 60.8c0 3.4-.6 6.5-1.9 9.5-1.3 2.9-3 5.5-5.2 7.6-2.2 2.2-4.8 3.9-7.7 5.1-3 1.2-6.1 1.8-9.4 1.8h-11.7V108h-13.7V37h25.5c3.3 0 6.5.6 9.4 1.8 3 1.2 5.5 2.9 7.7 5s3.9 4.7 5.2 7.6c1.2 2.9 1.8 6 1.8 9.4zm-13.8-.2c0-1.8-.3-3.6-1-5.2s-1.6-3-2.8-4.2c-1.2-1.2-2.6-2.1-4.2-2.8-1.6-.7-3.3-1.1-5.1-1.1h-9.1v26.8h9.1c1.8 0 3.5-.4 5.1-1.1 1.6-.7 3-1.7 4.2-3 1.2-1.2 2.1-2.7 2.8-4.3.7-1.5 1-3.2 1-5.1z"/></g></svg>