<svg id="Layer_1" xmlns="http://www.w3.org/2000/svg" viewBox="-211 113 177 375"><style>.st0{stroke:#FFF;stroke-width:4;stroke-miterlimit:10}.st0,.st1{fill:#FFF}</style><g id="XMLID_7_"><path id="XMLID_8_" class="st0" d="M-122.1 119l16.5 13.3v6.7l-13.6-11v38.1h-5.8V128l-13.6 11v-6.7l16.5-13.3z"/></g><g id="miu"><g id="Artboard-1"><path id="device-smart-phone-vertical-outline-stroke" class="st1" d="M-202.7 218.5v238.9c0 26.5 24.5 26.5 24.5 26.5H-68s24.5 0 24.5-26.5V218.5C-43.5 192-68 192-68 192h-110.2s-24.5 0-24.5 26.5zM-68 205.3c1.3 0 4.2.5 6.8 1.9 3.6 2 5.5 5 5.5 11.4v238.9c0 6.4-1.8 9.4-5.5 11.4-2.6 1.4-5.4 1.9-6.8 1.9h-110.2c-1.3 0-4.2-.5-6.8-1.9-3.6-2-5.5-5-5.5-11.4v-239c0-6.4 1.8-9.4 5.5-11.4 2.6-1.4 5.4-1.9 6.8-1.9H-68zm-55.1 258.8c6.8 0 12.3-5.9 12.3-13.3 0-7.3-5.5-13.3-12.3-13.3-6.8 0-12.3 5.9-12.3 13.3.1 7.3 5.5 13.3 12.3 13.3zM-151 211.9c-1.5 0-2.7 1.3-2.7 2.9v.8c0 1.6 1.2 2.9 2.7 2.9h55.8c1.5 0 2.7-1.3 2.7-2.9v-.8c0-1.6-1.2-2.9-2.7-2.9H-151zm-39.5 13.3v13.3h134.8v-13.3h-134.8zm0 192.4v13.3h134.8v-13.3h-134.8z"/></g></g></svg>