<svg id="Layer_1" xmlns="http://www.w3.org/2000/svg" viewBox="-211 113 177 375"><style>.st0{stroke:#FFF;stroke-width:4;stroke-miterlimit:10}.st0,.st1{fill:#FFF}</style><g id="XMLID_7_"><path id="XMLID_8_" class="st0" d="M-122.1 119l16.5 13.3v6.7l-13.6-11v38.1h-5.8V128l-13.6 11v-6.7l16.5-13.3z"/></g><path class="st1" d="M-205 404.7V212.3c0-11.2 9.1-20.3 20.3-20.3h121.6c11.2 0 20.3 9.1 20.3 20.3v192.5c0 11.2-9.1 20.3-20.3 20.3h-121.6c-11.2-.1-20.3-9.2-20.3-20.4zm96.2-202.6v212.7h20.3V202.1h-20.3zm45.6 212.8c5.6 0 10.1-4.5 10.1-10.1V212.3c0-5.6-4.5-10.1-10.1-10.1h-15.2v212.7h15.2zm-55.7 0V202.1h-65.8c-5.6 0-10.1 4.5-10.1 10.1v192.5c0 5.6 4.5 10.1 10.1 10.1h65.8zm-30.4-96.3v-20.3c0-2.8 2.3-5.1 5.1-5.1s5.1 2.3 5.1 5.1v20.3c0 2.8-2.3 5.1-5.1 5.1s-5.1-2.3-5.1-5.1zm0-45.6v-45.6c0-2.8 2.3-5.1 5.1-5.1s5.1 2.3 5.1 5.1V273c0 2.8-2.3 5.1-5.1 5.1s-5.1-2.3-5.1-5.1zm-15.2-45.5v30.4c0 2.8-2.3 5.1-5.1 5.1s-5.1-2.3-5.1-5.1v-30.4c0-2.8 2.3-5.1 5.1-5.1 2.9 0 5.1 2.3 5.1 5.1z"/></svg>