<svg id="Layer_1" xmlns="http://www.w3.org/2000/svg" viewBox="0 0 595.8 234.5"><style>.st0{fill:#FFF}</style><path id="XMLID_10_" class="st0" d="M98.5 83.8c-21.3-2.7-36.2-4.1-44.7-4.1s-14 .8-16.5 2.3c-2.5 1.5-3.7 4-3.7 7.3s1.7 5.7 5 7c3.3 1.3 11.9 3.2 25.8 5.7 13.8 2.5 23.7 6.6 29.5 12.2 5.8 5.7 8.8 14.9 8.8 27.6 0 27.8-17.3 41.7-51.8 41.7-11.3 0-25.1-1.5-41.2-4.6l-8.2-1.5 1-28.9c21.3 2.8 36.1 4.1 44.5 4.1 8.3 0 14-.8 17-2.4 3-1.6 4.5-4.1 4.5-7.3 0-3.3-1.6-5.7-4.8-7.2-3.2-1.5-11.4-3.4-24.7-5.7-13.3-2.2-23.2-6-29.8-11.3-6.5-5.3-9.8-14.8-9.8-28.5s4.6-24 13.9-30.9c9.3-7 21.2-10.4 35.8-10.4 10.1 0 24 1.6 41.5 4.9l8.5 1.5-.6 28.5z"/><path class="st0" d="M127.6 234.5v-183h34.3v7c11.2-6.7 21-10.1 29.4-10.1 17.3 0 30.1 5.2 38.4 15.6 8.2 10.4 12.4 28 12.4 53 0 24.9-4.6 42.2-13.7 51.9-9.1 9.7-24.1 14.6-44.8 14.6-5.7 0-11.8-.5-18.3-1.5l-3.1-.5v53.1h-34.6zm57-155.1c-6.4 0-12.8 1.3-19.3 3.9l-3.1 1.3V152c7.7 1 14 1.5 18.8 1.5 10 0 16.8-2.9 20.5-8.8 3.7-5.8 5.5-15.8 5.5-29.9 0-23.6-7.5-35.4-22.4-35.4M478.4 0v180.4h-34.3V175c-12 5.7-22.4 8.5-31.2 8.5-18.7 0-31.8-5.4-39.2-16.2-7.4-10.8-11.1-28-11.1-51.4 0-23.5 4.4-40.5 13.3-51.3 8.8-10.7 22.2-16.1 40.1-16.1 5.5 0 13.1.9 22.9 2.6l4.9 1V0h34.6zm-38.2 149.5l3.6-.8V80.9c-9.4-1.7-17.9-2.6-25.3-2.6-13.9 0-20.9 12.4-20.9 37.1 0 13.4 1.5 22.9 4.6 28.6 3.1 5.7 8.2 8.5 15.3 8.5 7.3.1 14.8-1 22.7-3"/><path id="XMLID_5_" class="st0" d="M302.3 126.4c-10.6 0-19.4-3.6-26.2-10.8-6.9-7.2-10.3-16.1-10.3-26.7 0-10.7 3.4-19.5 10.2-26.5 6.8-7 15.6-10.6 26.2-10.6s19.3 3.6 25.9 10.8c6.7 7.2 10 16.1 10 26.7s-3.3 19.4-10 26.5c-6.6 7.1-15.2 10.6-25.8 10.6"/><path id="XMLID_4_" class="st0" d="M265.7 178.7c0-10.7 3.4-19.5 10.2-26.5 6.8-7 15.6-10.6 26.2-10.6s19.3 3.6 25.9 10.8c6.7 7.2 10 16.1 10 26.7"/><path class="st0" d="M553.9 135.6c-22.7 0-41.2-18.5-41.2-41.2 0-22.7 18.5-41.2 41.2-41.2 22.7 0 41.2 18.5 41.2 41.2 0 22.7-18.5 41.2-41.2 41.2m0-73.5c-17.8 0-32.3 14.5-32.3 32.3 0 17.8 14.5 32.3 32.3 32.3 17.8 0 32.3-14.5 32.3-32.3 0-17.8-14.5-32.3-32.3-32.3"/><path id="XMLID_1_" class="st0" d="M541.7 77.7c3.4-1.3 7.3-2 11.5-2s7.3.8 9.3 2.4c1.9 1.6 2.9 4.1 2.9 7.6s-1.4 6.2-4.3 8c1.8.9 3.1 1.9 3.8 3 .8 1 1.1 2.6 1.1 4.9 0 3.9-1 6.8-3 8.7-2 1.9-5.2 2.8-9.6 2.8-3.2 0-6.7-.5-10.2-1.4l-1.8-.4.4-5.7c4.2.7 7.7 1 10.5 1 3.8 0 5.8-1.6 5.8-4.8 0-1.3-.5-2.4-1.5-3.2-1-.8-2.3-1.2-3.9-1.2h-7.4v-6.2h7.4c1.2 0 2.3-.5 3.3-1.5s1.4-2.1 1.4-3.4c0-2.6-1.8-3.9-5.5-3.9-2.6 0-5.3.3-8.2.8l-1.5.2-.5-5.7z"/></svg>